<?xml version="1.0" encoding="utf-8" ?>
<svg baseProfile="full" height="1280px" version="1.1" width="1280px" xmlns="http://www.w3.org/2000/svg" xmlns:ev="http://www.w3.org/2001/xml-events" xmlns:xlink="http://www.w3.org/1999/xlink"><defs /><rect fill="rgb(163,155,149)" height="40px" opacity="0.501960784314" width="40px" x="640px" y="80px" /><rect fill="rgb(163,155,149)" height="40px" opacity="0.501960784314" width="40px" x="400px" y="120px" /><rect fill="rgb(86,63,50)" height="40px" width="40px" x="640px" y="120px" /><rect fill="rgb(163,155,149)" height="40px" opacity="0.501960784314" width="40px" x="880px" y="120px" /><rect fill="rgb(163,155,149)" height="40px" opacity="0.501960784314" width="40px" x="200px" y="160px" /><rect fill="rgb(75,55,43)" height="40px" width="40px" x="400px" y="160px" /><rect fill="rgb(146,126,106)" height="40px" opacity="0.501960784314" width="40px" x="600px" y="160px" /><rect fill="rgb(86,63,50)" height="40px" width="40px" x="640px" y="160px" /><rect fill="rgb(146,126,106)" height="40px" opacity="0.501960784314" width="40px" x="680px" y="160px" /><rect fill="rgb(86,63,50)" height="40px" width="40px" x="880px" y="160px" /><rect fill="rgb(163,155,149)" height="40px" opacity="0.501960784314" width="40px" x="1080px" y="160px" /><rect fill="rgb(75,55,43)" height="40px" width="40px" x="200px" y="200px" /><rect fill="rgb(146,126,106)" height="40px" opacity="0.501960784314" width="40px" x="360px" y="200px" /><rect fill="rgb(75,55,43)" height="40px" width="40px" x="400px" y="200px" /><rect fill="rgb(146,126,106)" height="40px" opacity="0.501960784314" width="40px" x="440px" y="200px" /><rect fill="rgb(75,55,43)" height="40px" width="40px" x="600px" y="200px" /><rect fill="rgb(86,63,50)" height="40px" width="40px" x="640px" y="200px" /><rect fill="rgb(86,63,50)" height="40px" width="40px" x="680px" y="200px" /><rect fill="rgb(146,126,106)" height="40px" opacity="0.501960784314" width="40px" x="840px" y="200px" /><rect fill="rgb(86,63,50)" height="40px" width="40px" x="880px" y="200px" /><rect fill="rgb(146,126,106)" height="40px" opacity="0.501960784314" width="40px" x="920px" y="200px" /><rect fill="rgb(86,63,50)" height="40px" width="40px" x="1080px" y="200px" /><rect fill="rgb(163,155,149)" height="40px" opacity="0.501960784314" width="40px" x="160px" y="240px" /><rect fill="rgb(75,55,43)" height="40px" width="40px" x="200px" y="240px" /><rect fill="rgb(146,126,106)" height="40px" opacity="0.501960784314" width="40px" x="240px" y="240px" /><rect fill="rgb(75,55,43)" height="40px" width="40px" x="360px" y="240px" /><rect fill="rgb(75,55,43)" height="40px" width="40px" x="400px" y="240px" /><rect fill="rgb(75,55,43)" height="40px" width="40px" x="440px" y="240px" /><rect fill="rgb(163,155,149)" height="40px" opacity="0.501960784314" width="40px" x="480px" y="240px" /><rect fill="rgb(163,155,149)" height="40px" opacity="0.501960784314" width="40px" x="560px" y="240px" /><rect fill="rgb(75,55,43)" height="40px" width="40px" x="600px" y="240px" /><rect fill="rgb(86,63,50)" height="40px" width="40px" x="640px" y="240px" /><rect fill="rgb(86,63,50)" height="40px" width="40px" x="680px" y="240px" /><rect fill="rgb(163,155,149)" height="40px" opacity="0.501960784314" width="40px" x="720px" y="240px" /><rect fill="rgb(163,155,149)" height="40px" opacity="0.501960784314" width="40px" x="800px" y="240px" /><rect fill="rgb(86,63,50)" height="40px" width="40px" x="840px" y="240px" /><rect fill="rgb(86,63,50)" height="40px" width="40px" x="880px" y="240px" /><rect fill="rgb(86,63,50)" height="40px" width="40px" x="920px" y="240px" /><rect fill="rgb(146,126,106)" height="40px" opacity="0.501960784314" width="40px" x="1040px" y="240px" /><rect fill="rgb(86,63,50)" height="40px" width="40px" x="1080px" y="240px" /><rect fill="rgb(163,155,149)" height="40px" opacity="0.501960784314" width="40px" x="1120px" y="240px" /><rect fill="rgb(146,126,106)" height="40px" opacity="0.501960784314" width="40px" x="160px" y="280px" /><rect fill="rgb(75,55,43)" height="40px" width="40px" x="200px" y="280px" /><rect fill="rgb(75,55,43)" height="40px" width="40px" x="240px" y="280px" /><rect fill="rgb(146,126,106)" height="40px" opacity="0.501960784314" width="40px" x="320px" y="280px" /><rect fill="rgb(75,55,43)" height="40px" width="40px" x="360px" y="280px" /><rect fill="rgb(75,55,43)" height="40px" width="40px" x="400px" y="280px" /><rect fill="rgb(75,55,43)" height="40px" width="40px" x="440px" y="280px" /><rect fill="rgb(75,55,43)" height="40px" width="40px" x="480px" y="280px" /><rect fill="rgb(146,126,106)" height="40px" opacity="0.501960784314" width="40px" x="520px" y="280px" /><rect fill="rgb(75,55,43)" height="40px" width="40px" x="560px" y="280px" /><rect fill="rgb(75,55,43)" height="40px" width="40px" x="600px" y="280px" /><rect fill="rgb(86,63,50)" height="40px" width="40px" x="640px" y="280px" /><rect fill="rgb(86,63,50)" height="40px" width="40px" x="680px" y="280px" /><rect fill="rgb(86,63,50)" height="40px" width="40px" x="720px" y="280px" /><rect fill="rgb(146,126,106)" height="40px" opacity="0.501960784314" width="40px" x="760px" y="280px" /><rect fill="rgb(86,63,50)" height="40px" width="40px" x="800px" y="280px" /><rect fill="rgb(86,63,50)" height="40px" width="40px" x="840px" y="280px" /><rect fill="rgb(86,63,50)" height="40px" width="40px" x="880px" y="280px" /><rect fill="rgb(86,63,50)" height="40px" width="40px" x="920px" y="280px" /><rect fill="rgb(146,126,106)" height="40px" opacity="0.501960784314" width="40px" x="960px" y="280px" /><rect fill="rgb(86,63,50)" height="40px" width="40px" x="1040px" y="280px" /><rect fill="rgb(86,63,50)" height="40px" width="40px" x="1080px" y="280px" /><rect fill="rgb(146,126,106)" height="40px" opacity="0.501960784314" width="40px" x="1120px" y="280px" /><rect fill="rgb(146,126,106)" height="40px" opacity="0.501960784314" width="40px" x="160px" y="320px" /><rect fill="rgb(75,55,43)" height="40px" width="40px" x="200px" y="320px" /><rect fill="rgb(75,55,43)" height="40px" width="40px" x="240px" y="320px" /><rect fill="rgb(146,126,106)" height="40px" opacity="0.501960784314" width="40px" x="280px" y="320px" /><rect fill="rgb(75,55,43)" height="40px" width="40px" x="320px" y="320px" /><rect fill="rgb(75,55,43)" height="40px" width="40px" x="360px" y="320px" /><rect fill="rgb(75,55,43)" height="40px" width="40px" x="400px" y="320px" /><rect fill="rgb(75,55,43)" height="40px" width="40px" x="440px" y="320px" /><rect fill="rgb(75,55,43)" height="40px" width="40px" x="480px" y="320px" /><rect fill="rgb(75,55,43)" height="40px" width="40px" x="520px" y="320px" /><rect fill="rgb(75,55,43)" height="40px" width="40px" x="560px" y="320px" /><rect fill="rgb(255,197,83)" height="40px" width="40px" x="600px" y="320px" /><rect fill="rgb(255,197,83)" height="40px" width="40px" x="640px" y="320px" /><rect fill="rgb(255,197,83)" height="40px" width="40px" x="680px" y="320px" /><rect fill="rgb(86,63,50)" height="40px" width="40px" x="720px" y="320px" /><rect fill="rgb(86,63,50)" height="40px" width="40px" x="760px" y="320px" /><rect fill="rgb(86,63,50)" height="40px" width="40px" x="800px" y="320px" /><rect fill="rgb(86,63,50)" height="40px" width="40px" x="840px" y="320px" /><rect fill="rgb(86,63,50)" height="40px" width="40px" x="880px" y="320px" /><rect fill="rgb(86,63,50)" height="40px" width="40px" x="920px" y="320px" /><rect fill="rgb(86,63,50)" height="40px" width="40px" x="960px" y="320px" /><rect fill="rgb(146,126,106)" height="40px" opacity="0.501960784314" width="40px" x="1000px" y="320px" /><rect fill="rgb(86,63,50)" height="40px" width="40px" x="1040px" y="320px" /><rect fill="rgb(86,63,50)" height="40px" width="40px" x="1080px" y="320px" /><rect fill="rgb(146,126,106)" height="40px" opacity="0.501960784314" width="40px" x="1120px" y="320px" /><rect fill="rgb(219,148,7)" height="40px" width="40px" x="120px" y="360px" /><rect fill="rgb(75,55,43)" height="40px" width="40px" x="160px" y="360px" /><rect fill="rgb(75,55,43)" height="40px" width="40px" x="200px" y="360px" /><rect fill="rgb(75,55,43)" height="40px" width="40px" x="240px" y="360px" /><rect fill="rgb(75,55,43)" height="40px" width="40px" x="280px" y="360px" /><rect fill="rgb(75,55,43)" height="40px" width="40px" x="320px" y="360px" /><rect fill="rgb(75,55,43)" height="40px" width="40px" x="360px" y="360px" /><rect fill="rgb(75,55,43)" height="40px" width="40px" x="400px" y="360px" /><rect fill="rgb(57,42,28)" height="40px" width="40px" x="440px" y="360px" /><rect fill="rgb(57,42,28)" height="40px" width="40px" x="480px" y="360px" /><rect fill="rgb(57,42,28)" height="40px" width="40px" x="520px" y="360px" /><rect fill="rgb(255,197,83)" height="40px" width="40px" x="560px" y="360px" /><rect fill="rgb(203,184,80)" height="40px" width="40px" x="600px" y="360px" /><rect fill="rgb(252,221,53)" height="40px" width="40px" x="640px" y="360px" /><rect fill="rgb(203,184,80)" height="40px" width="40px" x="680px" y="360px" /><rect fill="rgb(205,123,7)" height="40px" width="40px" x="720px" y="360px" /><rect fill="rgb(57,42,28)" height="40px" width="40px" x="760px" y="360px" /><rect fill="rgb(57,42,28)" height="40px" width="40px" x="800px" y="360px" /><rect fill="rgb(57,42,28)" height="40px" width="40px" x="840px" y="360px" /><rect fill="rgb(86,63,50)" height="40px" width="40px" x="880px" y="360px" /><rect fill="rgb(86,63,50)" height="40px" width="40px" x="920px" y="360px" /><rect fill="rgb(86,63,50)" height="40px" width="40px" x="960px" y="360px" /><rect fill="rgb(86,63,50)" height="40px" width="40px" x="1000px" y="360px" /><rect fill="rgb(86,63,50)" height="40px" width="40px" x="1040px" y="360px" /><rect fill="rgb(86,63,50)" height="40px" width="40px" x="1080px" y="360px" /><rect fill="rgb(86,63,50)" height="40px" width="40px" x="1120px" y="360px" /><rect fill="rgb(219,148,7)" height="40px" width="40px" x="1160px" y="360px" /><rect fill="rgb(239,172,40)" height="40px" width="40px" x="120px" y="400px" /><rect fill="rgb(171,92,28)" height="40px" width="40px" x="160px" y="400px" /><rect fill="rgb(75,55,43)" height="40px" width="40px" x="200px" y="400px" /><rect fill="rgb(75,55,43)" height="40px" width="40px" x="240px" y="400px" /><rect fill="rgb(75,55,43)" height="40px" width="40px" x="280px" y="400px" /><rect fill="rgb(255,197,83)" height="40px" width="40px" x="320px" y="400px" /><rect fill="rgb(57,42,28)" height="40px" width="40px" x="360px" y="400px" /><rect fill="rgb(57,42,28)" height="40px" width="40px" x="400px" y="400px" /><rect fill="rgb(42,29,13)" height="40px" width="40px" x="440px" y="400px" /><rect fill="rgb(42,29,13)" height="40px" width="40px" x="480px" y="400px" /><rect fill="rgb(42,29,13)" height="40px" width="40px" x="520px" y="400px" /><rect fill="rgb(255,197,83)" height="40px" width="40px" x="560px" y="400px" /><rect fill="rgb(219,148,7)" height="40px" width="40px" x="600px" y="400px" /><rect fill="rgb(203,184,80)" height="40px" width="40px" x="640px" y="400px" /><rect fill="rgb(219,148,7)" height="40px" width="40px" x="680px" y="400px" /><rect fill="rgb(205,123,7)" height="40px" width="40px" x="720px" y="400px" /><rect fill="rgb(42,29,13)" height="40px" width="40px" x="760px" y="400px" /><rect fill="rgb(42,29,13)" height="40px" width="40px" x="800px" y="400px" /><rect fill="rgb(42,29,13)" height="40px" width="40px" x="840px" y="400px" /><rect fill="rgb(57,42,28)" height="40px" width="40px" x="880px" y="400px" /><rect fill="rgb(57,42,28)" height="40px" width="40px" x="920px" y="400px" /><rect fill="rgb(219,148,7)" height="40px" width="40px" x="960px" y="400px" /><rect fill="rgb(86,63,50)" height="40px" width="40px" x="1000px" y="400px" /><rect fill="rgb(86,63,50)" height="40px" width="40px" x="1040px" y="400px" /><rect fill="rgb(86,63,50)" height="40px" width="40px" x="1080px" y="400px" /><rect fill="rgb(171,92,28)" height="40px" width="40px" x="1120px" y="400px" /><rect fill="rgb(219,148,7)" height="40px" width="40px" x="1160px" y="400px" /><rect fill="rgb(239,172,40)" height="40px" width="40px" x="120px" y="440px" /><rect fill="rgb(219,148,7)" height="40px" width="40px" x="160px" y="440px" /><rect fill="rgb(75,55,43)" height="40px" width="40px" x="200px" y="440px" /><rect fill="rgb(57,42,28)" height="40px" width="40px" x="240px" y="440px" /><rect fill="rgb(57,42,28)" height="40px" width="40px" x="280px" y="440px" /><rect fill="rgb(239,172,40)" height="40px" width="40px" x="320px" y="440px" /><rect fill="rgb(42,29,13)" height="40px" width="40px" x="360px" y="440px" /><rect fill="rgb(42,29,13)" height="40px" width="40px" x="400px" y="440px" /><rect fill="rgb(57,42,28)" height="40px" width="40px" x="440px" y="440px" /><rect fill="rgb(57,42,28)" height="40px" width="40px" x="480px" y="440px" /><rect fill="rgb(57,42,28)" height="40px" width="40px" x="520px" y="440px" /><rect fill="rgb(57,42,28)" height="40px" width="40px" x="560px" y="440px" /><rect fill="rgb(205,123,7)" height="40px" width="40px" x="600px" y="440px" /><rect fill="rgb(205,123,7)" height="40px" width="40px" x="640px" y="440px" /><rect fill="rgb(205,123,7)" height="40px" width="40px" x="680px" y="440px" /><rect fill="rgb(57,42,28)" height="40px" width="40px" x="720px" y="440px" /><rect fill="rgb(57,42,28)" height="40px" width="40px" x="760px" y="440px" /><rect fill="rgb(57,42,28)" height="40px" width="40px" x="800px" y="440px" /><rect fill="rgb(57,42,28)" height="40px" width="40px" x="840px" y="440px" /><rect fill="rgb(42,29,13)" height="40px" width="40px" x="880px" y="440px" /><rect fill="rgb(42,29,13)" height="40px" width="40px" x="920px" y="440px" /><rect fill="rgb(219,148,7)" height="40px" width="40px" x="960px" y="440px" /><rect fill="rgb(57,42,28)" height="40px" width="40px" x="1000px" y="440px" /><rect fill="rgb(57,42,28)" height="40px" width="40px" x="1040px" y="440px" /><rect fill="rgb(86,63,50)" height="40px" width="40px" x="1080px" y="440px" /><rect fill="rgb(219,148,7)" height="40px" width="40px" x="1120px" y="440px" /><rect fill="rgb(219,148,7)" height="40px" width="40px" x="1160px" y="440px" /><rect fill="rgb(239,183,117)" height="40px" opacity="0.501960784314" width="40px" x="80px" y="480px" /><rect fill="rgb(239,105,47)" height="40px" width="40px" x="120px" y="480px" /><rect fill="rgb(239,172,40)" height="40px" width="40px" x="160px" y="480px" /><rect fill="rgb(57,42,28)" height="40px" width="40px" x="200px" y="480px" /><rect fill="rgb(42,29,13)" height="40px" width="40px" x="240px" y="480px" /><rect fill="rgb(255,197,83)" height="40px" width="40px" x="280px" y="480px" /><rect fill="rgb(239,172,40)" height="40px" width="40px" x="320px" y="480px" /><rect fill="rgb(239,172,40)" height="40px" width="40px" x="360px" y="480px" /><rect fill="rgb(57,42,28)" height="40px" width="40px" x="400px" y="480px" /><rect fill="rgb(57,42,28)" height="40px" width="40px" x="440px" y="480px" /><rect fill="rgb(57,42,28)" height="40px" width="40px" x="480px" y="480px" /><rect fill="rgb(57,42,28)" height="40px" width="40px" x="520px" y="480px" /><rect fill="rgb(57,42,28)" height="40px" width="40px" x="560px" y="480px" /><rect fill="rgb(57,42,28)" height="40px" width="40px" x="600px" y="480px" /><rect fill="rgb(255,197,83)" height="40px" width="40px" x="640px" y="480px" /><rect fill="rgb(57,42,28)" height="40px" width="40px" x="680px" y="480px" /><rect fill="rgb(57,42,28)" height="40px" width="40px" x="720px" y="480px" /><rect fill="rgb(57,42,28)" height="40px" width="40px" x="760px" y="480px" /><rect fill="rgb(57,42,28)" height="40px" width="40px" x="800px" y="480px" /><rect fill="rgb(57,42,28)" height="40px" width="40px" x="840px" y="480px" /><rect fill="rgb(57,42,28)" height="40px" width="40px" x="880px" y="480px" /><rect fill="rgb(219,148,7)" height="40px" width="40px" x="920px" y="480px" /><rect fill="rgb(219,148,7)" height="40px" width="40px" x="960px" y="480px" /><rect fill="rgb(42,29,13)" height="40px" width="40px" x="1000px" y="480px" /><rect fill="rgb(42,29,13)" height="40px" width="40px" x="1040px" y="480px" /><rect fill="rgb(171,92,28)" height="40px" width="40px" x="1080px" y="480px" /><rect fill="rgb(219,148,7)" height="40px" width="40px" x="1120px" y="480px" /><rect fill="rgb(239,105,47)" height="40px" width="40px" x="1160px" y="480px" /><rect fill="rgb(239,183,117)" height="40px" opacity="0.501960784314" width="40px" x="1200px" y="480px" /><rect fill="rgb(239,105,47)" height="40px" width="40px" x="80px" y="520px" /><rect fill="rgb(214,0,8)" height="40px" width="40px" x="120px" y="520px" /><rect fill="rgb(239,172,40)" height="40px" width="40px" x="160px" y="520px" /><rect fill="rgb(219,148,7)" height="40px" width="40px" x="200px" y="520px" /><rect fill="rgb(57,42,28)" height="40px" width="40px" x="240px" y="520px" /><rect fill="rgb(239,172,40)" height="40px" width="40px" x="280px" y="520px" /><rect fill="rgb(239,172,40)" height="40px" width="40px" x="320px" y="520px" /><rect fill="rgb(239,172,40)" height="40px" width="40px" x="360px" y="520px" /><rect fill="rgb(171,92,28)" height="40px" width="40px" x="400px" y="520px" /><rect fill="rgb(42,29,13)" height="40px" width="40px" x="440px" y="520px" /><rect fill="rgb(42,29,13)" height="40px" width="40px" x="480px" y="520px" /><rect fill="rgb(42,29,13)" height="40px" width="40px" x="520px" y="520px" /><rect fill="rgb(42,29,13)" height="40px" width="40px" x="560px" y="520px" /><rect fill="rgb(255,197,83)" height="40px" width="40px" x="600px" y="520px" /><rect fill="rgb(239,172,40)" height="40px" width="40px" x="640px" y="520px" /><rect fill="rgb(219,148,7)" height="40px" width="40px" x="680px" y="520px" /><rect fill="rgb(42,29,13)" height="40px" width="40px" x="720px" y="520px" /><rect fill="rgb(42,29,13)" height="40px" width="40px" x="760px" y="520px" /><rect fill="rgb(42,29,13)" height="40px" width="40px" x="800px" y="520px" /><rect fill="rgb(42,29,13)" height="40px" width="40px" x="840px" y="520px" /><rect fill="rgb(171,92,28)" height="40px" width="40px" x="880px" y="520px" /><rect fill="rgb(219,148,7)" height="40px" width="40px" x="920px" y="520px" /><rect fill="rgb(219,148,7)" height="40px" width="40px" x="960px" y="520px" /><rect fill="rgb(219,148,7)" height="40px" width="40px" x="1000px" y="520px" /><rect fill="rgb(57,42,28)" height="40px" width="40px" x="1040px" y="520px" /><rect fill="rgb(219,148,7)" height="40px" width="40px" x="1080px" y="520px" /><rect fill="rgb(219,148,7)" height="40px" width="40px" x="1120px" y="520px" /><rect fill="rgb(214,0,8)" height="40px" width="40px" x="1160px" y="520px" /><rect fill="rgb(239,105,47)" height="40px" width="40px" x="1200px" y="520px" /><rect fill="rgb(239,183,117)" height="40px" opacity="0.501960784314" width="40px" x="80px" y="560px" /><rect fill="rgb(155,26,10)" height="40px" width="40px" x="120px" y="560px" /><rect fill="rgb(239,172,40)" height="40px" width="40px" x="160px" y="560px" /><rect fill="rgb(239,172,40)" height="40px" width="40px" x="200px" y="560px" /><rect fill="rgb(255,197,83)" height="40px" width="40px" x="240px" y="560px" /><rect fill="rgb(239,172,40)" height="40px" width="40px" x="280px" y="560px" /><rect fill="rgb(255,197,83)" height="40px" width="40px" x="320px" y="560px" /><rect fill="rgb(239,172,40)" height="40px" width="40px" x="360px" y="560px" /><rect fill="rgb(239,172,40)" height="40px" width="40px" x="400px" y="560px" /><rect fill="rgb(42,29,13)" height="40px" width="40px" x="440px" y="560px" /><rect fill="rgb(42,29,13)" height="40px" width="40px" x="480px" y="560px" /><rect fill="rgb(42,29,13)" height="40px" width="40px" x="520px" y="560px" /><rect fill="rgb(42,29,13)" height="40px" width="40px" x="560px" y="560px" /><rect fill="rgb(255,197,83)" height="40px" width="40px" x="600px" y="560px" /><rect fill="rgb(239,172,40)" height="40px" width="40px" x="640px" y="560px" /><rect fill="rgb(219,148,7)" height="40px" width="40px" x="680px" y="560px" /><rect fill="rgb(171,92,28)" height="40px" width="40px" x="720px" y="560px" /><rect fill="rgb(42,29,13)" height="40px" width="40px" x="760px" y="560px" /><rect fill="rgb(42,29,13)" height="40px" width="40px" x="800px" y="560px" /><rect fill="rgb(42,29,13)" height="40px" width="40px" x="840px" y="560px" /><rect fill="rgb(219,148,7)" height="40px" width="40px" x="880px" y="560px" /><rect fill="rgb(219,148,7)" height="40px" width="40px" x="920px" y="560px" /><rect fill="rgb(255,197,83)" height="40px" width="40px" x="960px" y="560px" /><rect fill="rgb(219,148,7)" height="40px" width="40px" x="1000px" y="560px" /><rect fill="rgb(85,15,10)" height="40px" width="40px" x="1040px" y="560px" /><rect fill="rgb(219,148,7)" height="40px" width="40px" x="1080px" y="560px" /><rect fill="rgb(219,148,7)" height="40px" width="40px" x="1120px" y="560px" /><rect fill="rgb(155,26,10)" height="40px" width="40px" x="1160px" y="560px" /><rect fill="rgb(239,183,117)" height="40px" opacity="0.501960784314" width="40px" x="1200px" y="560px" /><rect fill="rgb(239,172,40)" height="40px" width="40px" x="120px" y="600px" /><rect fill="rgb(239,172,40)" height="40px" width="40px" x="160px" y="600px" /><rect fill="rgb(239,172,40)" height="40px" width="40px" x="200px" y="600px" /><rect fill="rgb(219,148,7)" height="40px" width="40px" x="240px" y="600px" /><rect fill="rgb(255,197,83)" height="40px" width="40px" x="280px" y="600px" /><rect fill="rgb(255,88,16)" height="40px" width="40px" x="320px" y="600px" /><rect fill="rgb(239,172,40)" height="40px" width="40px" x="360px" y="600px" /><rect fill="rgb(239,172,40)" height="40px" width="40px" x="400px" y="600px" /><rect fill="rgb(171,92,28)" height="40px" width="40px" x="440px" y="600px" /><rect fill="rgb(42,29,13)" height="40px" width="40px" x="480px" y="600px" /><rect fill="rgb(42,29,13)" height="40px" width="40px" x="520px" y="600px" /><rect fill="rgb(255,197,83)" height="40px" width="40px" x="560px" y="600px" /><rect fill="rgb(239,172,40)" height="40px" width="40px" x="600px" y="600px" /><rect fill="rgb(197,167,47)" height="40px" width="40px" x="640px" y="600px" /><rect fill="rgb(219,148,7)" height="40px" width="40px" x="680px" y="600px" /><rect fill="rgb(219,148,7)" height="40px" width="40px" x="720px" y="600px" /><rect fill="rgb(42,29,13)" height="40px" width="40px" x="760px" y="600px" /><rect fill="rgb(42,29,13)" height="40px" width="40px" x="800px" y="600px" /><rect fill="rgb(171,92,28)" height="40px" width="40px" x="840px" y="600px" /><rect fill="rgb(219,148,7)" height="40px" width="40px" x="880px" y="600px" /><rect fill="rgb(255,197,83)" height="40px" width="40px" x="920px" y="600px" /><rect fill="rgb(255,88,16)" height="40px" width="40px" x="960px" y="600px" /><rect fill="rgb(205,123,7)" height="40px" width="40px" x="1000px" y="600px" /><rect fill="rgb(171,92,28)" height="40px" width="40px" x="1040px" y="600px" /><rect fill="rgb(219,148,7)" height="40px" width="40px" x="1080px" y="600px" /><rect fill="rgb(219,148,7)" height="40px" width="40px" x="1120px" y="600px" /><rect fill="rgb(219,148,7)" height="40px" width="40px" x="1160px" y="600px" /><rect fill="rgb(255,197,83)" height="40px" width="40px" x="120px" y="640px" /><rect fill="rgb(239,172,40)" height="40px" width="40px" x="160px" y="640px" /><rect fill="rgb(239,172,40)" height="40px" width="40px" x="200px" y="640px" /><rect fill="rgb(239,172,40)" height="40px" width="40px" x="240px" y="640px" /><rect fill="rgb(239,105,47)" height="40px" width="40px" x="280px" y="640px" /><rect fill="rgb(155,26,10)" height="40px" width="40px" x="320px" y="640px" /><rect fill="rgb(239,105,47)" height="40px" width="40px" x="360px" y="640px" /><rect fill="rgb(239,172,40)" height="40px" width="40px" x="400px" y="640px" /><rect fill="rgb(239,172,40)" height="40px" width="40px" x="440px" y="640px" /><rect fill="rgb(42,29,13)" height="40px" width="40px" x="480px" y="640px" /><rect fill="rgb(57,42,28)" height="40px" width="40px" x="520px" y="640px" /><rect fill="rgb(255,197,83)" height="40px" width="40px" x="560px" y="640px" /><rect fill="rgb(197,167,47)" height="40px" width="40px" x="600px" y="640px" /><rect fill="rgb(122,202,45)" height="40px" width="40px" x="640px" y="640px" /><rect fill="rgb(165,140,39)" height="40px" width="40px" x="680px" y="640px" /><rect fill="rgb(219,148,7)" height="40px" width="40px" x="720px" y="640px" /><rect fill="rgb(171,92,28)" height="40px" width="40px" x="760px" y="640px" /><rect fill="rgb(42,29,13)" height="40px" width="40px" x="800px" y="640px" /><rect fill="rgb(219,148,7)" height="40px" width="40px" x="840px" y="640px" /><rect fill="rgb(219,148,7)" height="40px" width="40px" x="880px" y="640px" /><rect fill="rgb(239,105,47)" height="40px" width="40px" x="920px" y="640px" /><rect fill="rgb(155,26,10)" height="40px" width="40px" x="960px" y="640px" /><rect fill="rgb(239,105,47)" height="40px" width="40px" x="1000px" y="640px" /><rect fill="rgb(219,148,7)" height="40px" width="40px" x="1040px" y="640px" /><rect fill="rgb(219,148,7)" height="40px" width="40px" x="1080px" y="640px" /><rect fill="rgb(219,148,7)" height="40px" width="40px" x="1120px" y="640px" /><rect fill="rgb(239,172,40)" height="40px" width="40px" x="1160px" y="640px" /><rect fill="rgb(219,148,7)" height="40px" width="40px" x="120px" y="680px" /><rect fill="rgb(255,197,83)" height="40px" width="40px" x="160px" y="680px" /><rect fill="rgb(255,197,83)" height="40px" width="40px" x="200px" y="680px" /><rect fill="rgb(239,172,40)" height="40px" width="40px" x="240px" y="680px" /><rect fill="rgb(239,172,40)" height="40px" width="40px" x="280px" y="680px" /><rect fill="rgb(239,105,47)" height="40px" width="40px" x="320px" y="680px" /><rect fill="rgb(219,148,7)" height="40px" width="40px" x="360px" y="680px" /><rect fill="rgb(239,172,40)" height="40px" width="40px" x="400px" y="680px" /><rect fill="rgb(239,172,40)" height="40px" width="40px" x="440px" y="680px" /><rect fill="rgb(171,92,28)" height="40px" width="40px" x="480px" y="680px" /><rect fill="rgb(255,197,83)" height="40px" width="40px" x="520px" y="680px" /><rect fill="rgb(239,172,40)" height="40px" width="40px" x="560px" y="680px" /><rect fill="rgb(197,167,47)" height="40px" width="40px" x="600px" y="680px" /><rect fill="rgb(57,87,28)" height="40px" width="40px" x="640px" y="680px" /><rect fill="rgb(165,140,39)" height="40px" width="40px" x="680px" y="680px" /><rect fill="rgb(219,148,7)" height="40px" width="40px" x="720px" y="680px" /><rect fill="rgb(219,148,7)" height="40px" width="40px" x="760px" y="680px" /><rect fill="rgb(171,92,28)" height="40px" width="40px" x="800px" y="680px" /><rect fill="rgb(219,148,7)" height="40px" width="40px" x="840px" y="680px" /><rect fill="rgb(219,148,7)" height="40px" width="40px" x="880px" y="680px" /><rect fill="rgb(219,148,7)" height="40px" width="40px" x="920px" y="680px" /><rect fill="rgb(239,105,47)" height="40px" width="40px" x="960px" y="680px" /><rect fill="rgb(205,123,7)" height="40px" width="40px" x="1000px" y="680px" /><rect fill="rgb(219,148,7)" height="40px" width="40px" x="1040px" y="680px" /><rect fill="rgb(239,172,40)" height="40px" width="40px" x="1080px" y="680px" /><rect fill="rgb(239,172,40)" height="40px" width="40px" x="1120px" y="680px" /><rect fill="rgb(205,123,7)" height="40px" width="40px" x="1160px" y="680px" /><rect fill="rgb(239,172,40)" height="40px" width="40px" x="120px" y="720px" /><rect fill="rgb(219,148,7)" height="40px" width="40px" x="160px" y="720px" /><rect fill="rgb(219,148,7)" height="40px" width="40px" x="200px" y="720px" /><rect fill="rgb(255,197,83)" height="40px" width="40px" x="240px" y="720px" /><rect fill="rgb(255,197,83)" height="40px" width="40px" x="280px" y="720px" /><rect fill="rgb(239,172,40)" height="40px" width="40px" x="320px" y="720px" /><rect fill="rgb(239,172,40)" height="40px" width="40px" x="360px" y="720px" /><rect fill="rgb(239,172,40)" height="40px" width="40px" x="400px" y="720px" /><rect fill="rgb(239,172,40)" height="40px" width="40px" x="440px" y="720px" /><rect fill="rgb(239,172,40)" height="40px" width="40px" x="480px" y="720px" /><rect fill="rgb(239,172,40)" height="40px" width="40px" x="520px" y="720px" /><rect fill="rgb(239,172,40)" height="40px" width="40px" x="560px" y="720px" /><rect fill="rgb(197,167,47)" height="40px" width="40px" x="600px" y="720px" /><rect fill="rgb(57,87,28)" height="40px" width="40px" x="640px" y="720px" /><rect fill="rgb(165,140,39)" height="40px" width="40px" x="680px" y="720px" /><rect fill="rgb(219,148,7)" height="40px" width="40px" x="720px" y="720px" /><rect fill="rgb(219,148,7)" height="40px" width="40px" x="760px" y="720px" /><rect fill="rgb(219,148,7)" height="40px" width="40px" x="800px" y="720px" /><rect fill="rgb(219,148,7)" height="40px" width="40px" x="840px" y="720px" /><rect fill="rgb(219,148,7)" height="40px" width="40px" x="880px" y="720px" /><rect fill="rgb(219,148,7)" height="40px" width="40px" x="920px" y="720px" /><rect fill="rgb(219,148,7)" height="40px" width="40px" x="960px" y="720px" /><rect fill="rgb(239,172,40)" height="40px" width="40px" x="1000px" y="720px" /><rect fill="rgb(239,172,40)" height="40px" width="40px" x="1040px" y="720px" /><rect fill="rgb(205,123,7)" height="40px" width="40px" x="1080px" y="720px" /><rect fill="rgb(205,123,7)" height="40px" width="40px" x="1120px" y="720px" /><rect fill="rgb(219,148,7)" height="40px" width="40px" x="1160px" y="720px" /><rect fill="rgb(239,172,40)" height="40px" width="40px" x="120px" y="760px" /><rect fill="rgb(239,172,40)" height="40px" width="40px" x="160px" y="760px" /><rect fill="rgb(239,172,40)" height="40px" width="40px" x="200px" y="760px" /><rect fill="rgb(219,148,7)" height="40px" width="40px" x="240px" y="760px" /><rect fill="rgb(219,148,7)" height="40px" width="40px" x="280px" y="760px" /><rect fill="rgb(255,197,83)" height="40px" width="40px" x="320px" y="760px" /><rect fill="rgb(255,197,83)" height="40px" width="40px" x="360px" y="760px" /><rect fill="rgb(255,197,83)" height="40px" width="40px" x="400px" y="760px" /><rect fill="rgb(239,172,40)" height="40px" width="40px" x="440px" y="760px" /><rect fill="rgb(239,172,40)" height="40px" width="40px" x="480px" y="760px" /><rect fill="rgb(239,172,40)" height="40px" width="40px" x="520px" y="760px" /><rect fill="rgb(239,172,40)" height="40px" width="40px" x="560px" y="760px" /><rect fill="rgb(239,172,40)" height="40px" width="40px" x="600px" y="760px" /><rect fill="rgb(165,140,39)" height="40px" width="40px" x="640px" y="760px" /><rect fill="rgb(219,148,7)" height="40px" width="40px" x="680px" y="760px" /><rect fill="rgb(219,148,7)" height="40px" width="40px" x="720px" y="760px" /><rect fill="rgb(219,148,7)" height="40px" width="40px" x="760px" y="760px" /><rect fill="rgb(219,148,7)" height="40px" width="40px" x="800px" y="760px" /><rect fill="rgb(219,148,7)" height="40px" width="40px" x="840px" y="760px" /><rect fill="rgb(239,172,40)" height="40px" width="40px" x="880px" y="760px" /><rect fill="rgb(239,172,40)" height="40px" width="40px" x="920px" y="760px" /><rect fill="rgb(239,172,40)" height="40px" width="40px" x="960px" y="760px" /><rect fill="rgb(205,123,7)" height="40px" width="40px" x="1000px" y="760px" /><rect fill="rgb(205,123,7)" height="40px" width="40px" x="1040px" y="760px" /><rect fill="rgb(219,148,7)" height="40px" width="40px" x="1080px" y="760px" /><rect fill="rgb(219,148,7)" height="40px" width="40px" x="1120px" y="760px" /><rect fill="rgb(219,148,7)" height="40px" width="40px" x="1160px" y="760px" /><rect fill="rgb(219,148,7)" height="40px" width="40px" x="120px" y="800px" /><rect fill="rgb(239,172,40)" height="40px" width="40px" x="160px" y="800px" /><rect fill="rgb(39,100,104)" height="40px" width="40px" x="200px" y="800px" /><rect fill="rgb(239,172,40)" height="40px" width="40px" x="240px" y="800px" /><rect fill="rgb(239,172,40)" height="40px" width="40px" x="280px" y="800px" /><rect fill="rgb(219,148,7)" height="40px" width="40px" x="320px" y="800px" /><rect fill="rgb(219,148,7)" height="40px" width="40px" x="360px" y="800px" /><rect fill="rgb(219,148,7)" height="40px" width="40px" x="400px" y="800px" /><rect fill="rgb(255,197,83)" height="40px" width="40px" x="440px" y="800px" /><rect fill="rgb(255,197,83)" height="40px" width="40px" x="480px" y="800px" /><rect fill="rgb(255,197,83)" height="40px" width="40px" x="520px" y="800px" /><rect fill="rgb(255,197,83)" height="40px" width="40px" x="560px" y="800px" /><rect fill="rgb(239,172,40)" height="40px" width="40px" x="600px" y="800px" /><rect fill="rgb(239,172,40)" height="40px" width="40px" x="640px" y="800px" /><rect fill="rgb(239,172,40)" height="40px" width="40px" x="680px" y="800px" /><rect fill="rgb(239,172,40)" height="40px" width="40px" x="720px" y="800px" /><rect fill="rgb(239,172,40)" height="40px" width="40px" x="760px" y="800px" /><rect fill="rgb(239,172,40)" height="40px" width="40px" x="800px" y="800px" /><rect fill="rgb(239,172,40)" height="40px" width="40px" x="840px" y="800px" /><rect fill="rgb(205,123,7)" height="40px" width="40px" x="880px" y="800px" /><rect fill="rgb(205,123,7)" height="40px" width="40px" x="920px" y="800px" /><rect fill="rgb(205,123,7)" height="40px" width="40px" x="960px" y="800px" /><rect fill="rgb(219,148,7)" height="40px" width="40px" x="1000px" y="800px" /><rect fill="rgb(219,148,7)" height="40px" width="40px" x="1040px" y="800px" /><rect fill="rgb(39,100,104)" height="40px" width="40px" x="1080px" y="800px" /><rect fill="rgb(219,148,7)" height="40px" width="40px" x="1120px" y="800px" /><rect fill="rgb(205,123,7)" height="40px" width="40px" x="1160px" y="800px" /><rect fill="rgb(219,148,7)" height="40px" width="40px" x="120px" y="840px" /><rect fill="rgb(239,172,40)" height="40px" width="40px" x="160px" y="840px" /><rect fill="rgb(239,172,40)" height="40px" width="40px" x="200px" y="840px" /><rect fill="rgb(60,159,156)" height="40px" width="40px" x="240px" y="840px" /><rect fill="rgb(197,167,47)" height="40px" width="40px" x="280px" y="840px" /><rect fill="rgb(239,172,40)" height="40px" width="40px" x="320px" y="840px" /><rect fill="rgb(239,172,40)" height="40px" width="40px" x="360px" y="840px" /><rect fill="rgb(239,172,40)" height="40px" width="40px" x="400px" y="840px" /><rect fill="rgb(219,148,7)" height="40px" width="40px" x="440px" y="840px" /><rect fill="rgb(219,148,7)" height="40px" width="40px" x="480px" y="840px" /><rect fill="rgb(219,148,7)" height="40px" width="40px" x="520px" y="840px" /><rect fill="rgb(219,148,7)" height="40px" width="40px" x="560px" y="840px" /><rect fill="rgb(205,123,7)" height="40px" width="40px" x="600px" y="840px" /><rect fill="rgb(205,123,7)" height="40px" width="40px" x="640px" y="840px" /><rect fill="rgb(205,123,7)" height="40px" width="40px" x="680px" y="840px" /><rect fill="rgb(205,123,7)" height="40px" width="40px" x="720px" y="840px" /><rect fill="rgb(205,123,7)" height="40px" width="40px" x="760px" y="840px" /><rect fill="rgb(205,123,7)" height="40px" width="40px" x="800px" y="840px" /><rect fill="rgb(205,123,7)" height="40px" width="40px" x="840px" y="840px" /><rect fill="rgb(219,148,7)" height="40px" width="40px" x="880px" y="840px" /><rect fill="rgb(219,148,7)" height="40px" width="40px" x="920px" y="840px" /><rect fill="rgb(219,148,7)" height="40px" width="40px" x="960px" y="840px" /><rect fill="rgb(165,140,39)" height="40px" width="40px" x="1000px" y="840px" /><rect fill="rgb(60,159,156)" height="40px" width="40px" x="1040px" y="840px" /><rect fill="rgb(219,148,7)" height="40px" width="40px" x="1080px" y="840px" /><rect fill="rgb(219,148,7)" height="40px" width="40px" x="1120px" y="840px" /><rect fill="rgb(205,123,7)" height="40px" width="40px" x="1160px" y="840px" /><rect fill="rgb(219,148,7)" height="40px" width="40px" x="160px" y="880px" /><rect fill="rgb(239,172,40)" height="40px" width="40px" x="200px" y="880px" /><rect fill="rgb(239,172,40)" height="40px" width="40px" x="240px" y="880px" /><rect fill="rgb(239,172,40)" height="40px" width="40px" x="280px" y="880px" /><rect fill="rgb(239,172,40)" height="40px" width="40px" x="320px" y="880px" /><rect fill="rgb(197,167,47)" height="40px" width="40px" x="360px" y="880px" /><rect fill="rgb(39,100,104)" height="40px" width="40px" x="400px" y="880px" /><rect fill="rgb(239,172,40)" height="40px" width="40px" x="440px" y="880px" /><rect fill="rgb(239,172,40)" height="40px" width="40px" x="480px" y="880px" /><rect fill="rgb(197,167,47)" height="40px" width="40px" x="520px" y="880px" /><rect fill="rgb(197,167,47)" height="40px" width="40px" x="560px" y="880px" /><rect fill="rgb(239,172,40)" height="40px" width="40px" x="600px" y="880px" /><rect fill="rgb(219,148,7)" height="40px" width="40px" x="640px" y="880px" /><rect fill="rgb(219,148,7)" height="40px" width="40px" x="680px" y="880px" /><rect fill="rgb(165,140,39)" height="40px" width="40px" x="720px" y="880px" /><rect fill="rgb(165,140,39)" height="40px" width="40px" x="760px" y="880px" /><rect fill="rgb(219,148,7)" height="40px" width="40px" x="800px" y="880px" /><rect fill="rgb(219,148,7)" height="40px" width="40px" x="840px" y="880px" /><rect fill="rgb(39,100,104)" height="40px" width="40px" x="880px" y="880px" /><rect fill="rgb(165,140,39)" height="40px" width="40px" x="920px" y="880px" /><rect fill="rgb(219,148,7)" height="40px" width="40px" x="960px" y="880px" /><rect fill="rgb(219,148,7)" height="40px" width="40px" x="1000px" y="880px" /><rect fill="rgb(219,148,7)" height="40px" width="40px" x="1040px" y="880px" /><rect fill="rgb(219,148,7)" height="40px" width="40px" x="1080px" y="880px" /><rect fill="rgb(205,123,7)" height="40px" width="40px" x="1120px" y="880px" /><rect fill="rgb(219,148,7)" height="40px" width="40px" x="200px" y="920px" /><rect fill="rgb(219,148,7)" height="40px" width="40px" x="240px" y="920px" /><rect fill="rgb(239,172,40)" height="40px" width="40px" x="280px" y="920px" /><rect fill="rgb(239,172,40)" height="40px" width="40px" x="320px" y="920px" /><rect fill="rgb(239,172,40)" height="40px" width="40px" x="360px" y="920px" /><rect fill="rgb(239,172,40)" height="40px" width="40px" x="400px" y="920px" /><rect fill="rgb(239,172,40)" height="40px" width="40px" x="440px" y="920px" /><rect fill="rgb(197,167,47)" height="40px" width="40px" x="480px" y="920px" /><rect fill="rgb(39,100,104)" height="40px" width="40px" x="520px" y="920px" /><rect fill="rgb(60,159,156)" height="40px" width="40px" x="560px" y="920px" /><rect fill="rgb(197,167,47)" height="40px" width="40px" x="600px" y="920px" /><rect fill="rgb(219,148,7)" height="40px" width="40px" x="640px" y="920px" /><rect fill="rgb(165,140,39)" height="40px" width="40px" x="680px" y="920px" /><rect fill="rgb(39,100,104)" height="40px" width="40px" x="720px" y="920px" /><rect fill="rgb(60,159,156)" height="40px" width="40px" x="760px" y="920px" /><rect fill="rgb(165,140,39)" height="40px" width="40px" x="800px" y="920px" /><rect fill="rgb(219,148,7)" height="40px" width="40px" x="840px" y="920px" /><rect fill="rgb(219,148,7)" height="40px" width="40px" x="880px" y="920px" /><rect fill="rgb(219,148,7)" height="40px" width="40px" x="920px" y="920px" /><rect fill="rgb(219,148,7)" height="40px" width="40px" x="960px" y="920px" /><rect fill="rgb(219,148,7)" height="40px" width="40px" x="1000px" y="920px" /><rect fill="rgb(205,123,7)" height="40px" width="40px" x="1040px" y="920px" /><rect fill="rgb(205,123,7)" height="40px" width="40px" x="1080px" y="920px" /><rect fill="rgb(219,148,7)" height="40px" width="40px" x="280px" y="960px" /><rect fill="rgb(219,148,7)" height="40px" width="40px" x="320px" y="960px" /><rect fill="rgb(219,148,7)" height="40px" width="40px" x="360px" y="960px" /><rect fill="rgb(219,148,7)" height="40px" width="40px" x="400px" y="960px" /><rect fill="rgb(239,172,40)" height="40px" width="40px" x="440px" y="960px" /><rect fill="rgb(239,172,40)" height="40px" width="40px" x="480px" y="960px" /><rect fill="rgb(197,167,47)" height="40px" width="40px" x="520px" y="960px" /><rect fill="rgb(197,167,47)" height="40px" width="40px" x="560px" y="960px" /><rect fill="rgb(239,172,40)" height="40px" width="40px" x="600px" y="960px" /><rect fill="rgb(219,148,7)" height="40px" width="40px" x="640px" y="960px" /><rect fill="rgb(219,148,7)" height="40px" width="40px" x="680px" y="960px" /><rect fill="rgb(165,140,39)" height="40px" width="40px" x="720px" y="960px" /><rect fill="rgb(165,140,39)" height="40px" width="40px" x="760px" y="960px" /><rect fill="rgb(219,148,7)" height="40px" width="40px" x="800px" y="960px" /><rect fill="rgb(219,148,7)" height="40px" width="40px" x="840px" y="960px" /><rect fill="rgb(205,123,7)" height="40px" width="40px" x="880px" y="960px" /><rect fill="rgb(205,123,7)" height="40px" width="40px" x="920px" y="960px" /><rect fill="rgb(205,123,7)" height="40px" width="40px" x="960px" y="960px" /><rect fill="rgb(205,123,7)" height="40px" width="40px" x="1000px" y="960px" /><rect fill="rgb(219,148,7)" height="40px" width="40px" x="440px" y="1000px" /><rect fill="rgb(219,148,7)" height="40px" width="40px" x="480px" y="1000px" /><rect fill="rgb(219,148,7)" height="40px" width="40px" x="520px" y="1000px" /><rect fill="rgb(219,148,7)" height="40px" width="40px" x="560px" y="1000px" /><rect fill="rgb(219,148,7)" height="40px" width="40px" x="600px" y="1000px" /><rect fill="rgb(219,148,7)" height="40px" width="40px" x="640px" y="1000px" /><rect fill="rgb(205,123,7)" height="40px" width="40px" x="680px" y="1000px" /><rect fill="rgb(205,123,7)" height="40px" width="40px" x="720px" y="1000px" /><rect fill="rgb(205,123,7)" height="40px" width="40px" x="760px" y="1000px" /><rect fill="rgb(205,123,7)" height="40px" width="40px" x="800px" y="1000px" /><rect fill="rgb(205,123,7)" height="40px" width="40px" x="840px" y="1000px" /></svg>